<svg xmlns="http://www.w3.org/2000/svg" viewBox="0 0 600 200" width="600" height="200">
  <rect width="600" height="200" fill="#FFFFFF"/>
  <g transform="translate(80, 100)">
    <path d="M0 -40 C20 -40, 30 -28, 30 -12 C30 15, 20 30, 0 30 C-20 30, -30 15, -30 -12 C-30 -28, -20 -40, 0 -40Z" fill="none" stroke="#8B5E3C" stroke-width="2" stroke-linejoin="round"/>
    <path d="M-6 -30 C-6 -38, 0 -40, 0 -30 C0 -40, 6 -38, 6 -30 C6 -18, 0 -10, 0 -10 C0 -10, -6 -18, -6 -30Z" fill="#8B5E3C" opacity="0.8"/>
    <line x1="-6" y1="-6" x2="6" y2="-6" stroke="#FDF8F3" stroke-width="1.2" stroke-linecap="round"/>
    <circle cx="-4" cy="-12" r="1.5" fill="#FDF8F3" opacity="0.7"/>
    <circle cx="4" cy="-13" r="1.2" fill="#FDF8F3" opacity="0.7"/>
  </g>
  <text x="190" y="106" font-family="'Playfair Display', Georgia, serif" font-size="32" font-weight="700" fill="#3E2723">HEARTH</text>
  <text x="190" y="132" font-family="'Playfair Display', Georgia, serif" font-size="32" font-weight="400" fill="#8B5E3C">&amp; BEAN</text>
  <line x1="340" y1="100" x2="520" y2="100" stroke="#C49171" stroke-width="1.2" stroke-linecap="round"/>
  <text x="430" y="116" text-anchor="middle" font-family="'DM Sans', sans-serif" font-size="8" font-weight="500" letter-spacing="0.18em" fill="#795548">ARTISAN COFFEE ROASTERS</text>
</svg>